<svg width="263" height="64" fill="none" xmlns="http://www.w3.org/2000/svg"><g clip-path="url(#prefix__clip0_39_88)"><path d="M53.543 33.454a23.504 23.504 0 01-1.766 8.963 23.533 23.533 0 01-3.502 5.897c-.482.592-.992 1.16-1.529 1.703a23.618 23.618 0 01-3.521 2.916 22.882 22.882 0 01-6.159 2.938 22.758 22.758 0 01-6.737 1.009c-.762 0-1.52-.036-2.275-.112a23.686 23.686 0 01-2.255-.337 23.484 23.484 0 01-4.355-1.334 23.07 23.07 0 01-2.061-.981c-.668-.365-1.32-.76-1.953-1.182a24.52 24.52 0 01-1.83-1.37 23.769 23.769 0 01-3.217-3.25 23.343 23.343 0 01-3.502-5.898 22.934 22.934 0 01-1.322-4.39 23.098 23.098 0 01-.333-2.277 23.387 23.387 0 01-.111-2.295 23.39 23.39 0 01.444-4.572 23.533 23.533 0 014.824-10.293c.48-.593.993-1.158 1.529-1.703.54-.54 1.1-1.057 1.687-1.542a22.508 22.508 0 011.83-1.37 23.114 23.114 0 014.014-2.164 22.827 22.827 0 016.611-1.671 22.653 22.653 0 012.275-.112 22.797 22.797 0 014.53.449c1.492.299 2.951.746 4.355 1.334a23.033 23.033 0 015.84 3.534 23.743 23.743 0 011.692 1.542 24.768 24.768 0 011.529 1.703c.48.593.933 1.21 1.358 1.847a23.532 23.532 0 012.91 6.214c.222.738.405 1.479.556 2.232.147.753.258 1.51.333 2.276.076.761.111 1.526.111 2.296z" fill="#684BFF"/><path d="M30.297 64c-4.09 0-8.055-.81-11.791-2.404-3.61-1.538-6.845-3.75-9.632-6.55a30.453 30.453 0 01-6.492-9.72A30.637 30.637 0 010 33.421c0-4.127.802-8.13 2.382-11.9a30.56 30.56 0 016.492-9.72 30.037 30.037 0 019.632-6.55 29.867 29.867 0 0111.791-2.405c4.09 0 8.06.81 11.796 2.404a30.297 30.297 0 019.632 6.551 30.405 30.405 0 016.491 9.72 30.617 30.617 0 012.383 11.9 30.637 30.637 0 01-8.874 21.623 30.147 30.147 0 01-9.632 6.551A29.886 29.886 0 0130.297 64zm0-60.652c-16.433 0-29.8 13.49-29.8 30.074 0 16.587 13.367 30.077 29.8 30.077 16.437 0 29.805-13.49 29.805-30.077 0-16.584-13.368-30.074-29.805-30.074z" fill="#FFBA07"/><path d="M30.576 61.103c-3.665 0-7.218-.725-10.565-2.155a27.054 27.054 0 01-8.632-5.87 27.21 27.21 0 01-5.82-8.71 27.488 27.488 0 01-2.132-10.666c0-3.698.718-7.284 2.132-10.661a27.34 27.34 0 015.82-8.71 26.89 26.89 0 018.632-5.875 26.795 26.795 0 0110.565-2.151c3.664 0 7.222.725 10.569 2.151a27.155 27.155 0 018.631 5.874 27.155 27.155 0 015.816 8.71 27.402 27.402 0 012.136 10.662 27.422 27.422 0 01-2.136 10.666 27.419 27.419 0 01-5.816 8.71 26.928 26.928 0 01-8.631 5.87 26.748 26.748 0 01-10.57 2.155h.001zm0-54.35C15.85 6.754 3.87 18.843 3.87 33.704c0 14.863 11.979 26.951 26.705 26.951 14.73 0 26.708-12.088 26.708-26.952 0-14.86-11.979-26.948-26.708-26.948l.001-.002z" fill="#FFBA07"/><path d="M99.073 61.573c-3.113 0-5.84-.589-8.18-1.763-2.33-1.173-4.216-2.828-5.653-4.968l-1.175 5.722h-9.497V0H85.24v24.825c1.334-1.86 3.097-3.486 5.288-4.888 2.192-1.399 5.039-2.1 8.544-2.1 3.883 0 7.357.958 10.419 2.87 3.057 1.902 5.479 4.51 7.257 7.82 1.779 3.301 2.668 7.06 2.668 11.267 0 4.199-.889 7.94-2.668 11.218-1.778 3.281-4.2 5.862-7.257 7.74-3.062 1.88-6.536 2.821-10.418 2.821zm-2.256-9.423c3.387 0 6.194-1.146 8.417-3.446 2.224-2.296 3.335-5.264 3.335-8.91 0-3.642-1.111-6.64-3.335-8.991-2.223-2.36-5.03-3.542-8.417-3.542-3.442 0-6.265 1.166-8.464 3.494-2.192 2.32-3.288 5.3-3.288 8.942 0 3.654 1.096 6.647 3.288 8.975 2.2 2.32 5.022 3.478 8.464 3.478zm37.837-39.778c-1.937 0-3.537-.585-4.796-1.762-1.25-1.186-1.874-2.669-1.874-4.456 0-1.795.624-3.27 1.874-4.423C131.117.577 132.717 0 134.654 0c1.946 0 3.546.577 4.797 1.73 1.246 1.155 1.874 2.63 1.874 4.424 0 1.787-.628 3.27-1.874 4.456-1.251 1.177-2.851 1.762-4.797 1.762zm-5.336 48.192V18.847h10.673v41.717h-10.673zm41.675 1.009c-4.002 0-7.603-.925-10.799-2.772-3.188-1.847-5.714-4.411-7.576-7.693-1.866-3.277-2.795-7.083-2.795-11.41 0-4.316.941-8.114 2.827-11.395 1.894-3.278 4.439-5.842 7.639-7.693 3.196-1.847 6.789-2.773 10.783-2.773 3.947 0 7.52.926 10.72 2.773 3.196 1.851 5.721 4.415 7.575 7.693 1.862 3.281 2.795 7.08 2.795 11.394 0 4.328-.933 8.134-2.795 11.411-1.854 3.282-4.395 5.846-7.623 7.693-3.219 1.847-6.805 2.772-10.751 2.772zm0-9.343c2.783 0 5.201-1.046 7.258-3.141 2.052-2.104 3.081-5.233 3.081-9.392 0-4.142-1.029-7.264-3.081-9.359-2.057-2.104-4.447-3.157-7.179-3.157-2.827 0-5.256 1.053-7.289 3.157-2.025 2.095-3.034 5.217-3.034 9.36 0 4.158 1.009 7.287 3.034 9.39 2.033 2.096 4.435 3.142 7.21 3.142z" fill="#684BFF"/><path d="M201.657 60.564V18.847h9.418l.841 7.068c1.271-2.468 3.113-4.428 5.527-5.882 2.422-1.462 5.277-2.196 8.56-2.196 5.102 0 9.072 1.631 11.911 4.888 2.835 3.25 4.256 8.014 4.256 14.296v23.543h-10.672V38.03c0-3.59-.727-6.335-2.176-8.238-1.441-1.911-3.692-2.869-6.749-2.869-2.998 0-5.455 1.07-7.369 3.206-1.918 2.127-2.875 5.096-2.875 8.91v21.524h-10.672v.001zm50.671 0V0H263v60.564h-10.672z" fill="#FFD500"/></g><defs><clipPath id="prefix__clip0_39_88"><path fill="#fff" d="M0 0h263v64H0z"/></clipPath></defs></svg>