<svg width="263" height="64" viewBox="0 0 263 64" fill="none" xmlns="http://www.w3.org/2000/svg">
<g clip-path="url(#clip0_39_88)">
<path d="M53.543 33.454C53.543 34.219 53.508 34.984 53.433 35.749C53.3576 36.5125 53.2461 37.272 53.099 38.025C52.7994 39.5278 52.3567 40.9985 51.777 42.417C51.1958 43.8335 50.4777 45.19 49.633 46.467C49.2101 47.104 48.7569 47.7204 48.275 48.314C47.7928 48.9058 47.2826 49.4741 46.746 50.017C46.2075 50.5592 45.6432 51.0751 45.055 51.563C44.467 52.048 43.86 52.505 43.225 52.933C42.593 53.358 41.942 53.751 41.271 54.116C39.9312 54.8394 38.5226 55.4274 37.066 55.871C36.34 56.095 35.602 56.279 34.859 56.431C33.3678 56.7317 31.8502 56.8821 30.329 56.88C29.567 56.88 28.809 56.844 28.054 56.768C27.2974 56.6919 26.5448 56.5795 25.799 56.431C24.3075 56.1285 22.849 55.6817 21.444 55.097C20.7412 54.8042 20.0534 54.4768 19.383 54.116C18.7147 53.7513 18.0631 53.3569 17.43 52.934C16.799 52.506 16.1884 52.0489 15.6 51.564C14.4257 50.5866 13.3484 49.4982 12.383 48.314C10.9316 46.5312 9.75155 44.5437 8.881 42.416C8.2948 41.0005 7.85192 39.5298 7.559 38.026C7.41024 37.273 7.2991 36.5131 7.226 35.749C7.15142 34.9863 7.11438 34.2204 7.115 33.454C7.115 32.684 7.15 31.919 7.225 31.158C7.297 30.393 7.413 29.635 7.559 28.882C7.85421 27.3771 8.29701 25.905 8.881 24.487C9.46219 23.0705 10.1803 21.714 11.025 20.437C11.446 19.799 11.899 19.182 12.383 18.589C12.863 17.996 13.376 17.431 13.912 16.886C14.452 16.346 15.012 15.829 15.599 15.344C16.1854 14.8566 16.7962 14.3994 17.429 13.974C18.0615 13.5496 18.7135 13.1552 19.383 12.792C20.053 12.432 20.741 12.102 21.443 11.81C22.8469 11.2212 24.3061 10.7743 25.799 10.476C26.5445 10.3257 27.2971 10.2132 28.054 10.139C28.81 10.0635 29.5693 10.0262 30.329 10.027C31.087 10.027 31.846 10.063 32.604 10.139C33.3609 10.2132 34.1135 10.3257 34.859 10.476C36.3514 10.7749 37.8102 11.2218 39.214 11.81C41.3254 12.6914 43.2937 13.8825 45.054 15.344C45.6425 15.8305 46.2071 16.3451 46.746 16.886C47.2816 17.4298 47.7919 17.9981 48.275 18.589C48.755 19.182 49.208 19.799 49.633 20.436C50.9014 22.354 51.8818 24.4476 52.543 26.65C52.765 27.388 52.948 28.129 53.099 28.882C53.246 29.635 53.357 30.392 53.432 31.158C53.508 31.919 53.543 32.684 53.543 33.454Z" fill="#684BFF"/>
<path d="M30.297 64C26.207 64 22.242 63.19 18.506 61.596C14.896 60.058 11.661 57.846 8.874 55.046C6.10267 52.2556 3.89807 48.9548 2.382 45.326C0.801782 41.5563 -0.00811756 37.5085 -6.22891e-07 33.421C-6.22891e-07 29.294 0.801999 25.291 2.382 21.521C3.90047 17.8935 6.10478 14.5931 8.874 11.801C11.6265 9.01009 14.8987 6.78492 18.506 5.251C22.2325 3.65765 26.2442 2.83938 30.297 2.846C34.387 2.846 38.357 3.656 42.093 5.25C45.6972 6.79008 48.9683 9.01486 51.725 11.801C54.4969 14.5907 56.7013 17.8917 58.216 21.521C59.7964 25.2889 60.6067 29.3351 60.599 33.421C60.6146 41.5181 57.4242 49.2922 51.725 55.044C48.9708 57.8331 45.699 60.0583 42.093 61.595C38.3648 63.1885 34.3514 64.0068 30.297 64ZM30.297 3.348C13.864 3.348 0.496999 16.838 0.496999 33.422C0.496999 50.009 13.864 63.499 30.297 63.499C46.734 63.499 60.102 50.009 60.102 33.422C60.102 16.838 46.734 3.348 30.297 3.348Z" fill="#FFBA07"/>
<path d="M30.576 61.103C26.911 61.103 23.358 60.378 20.011 58.948C16.7799 57.5703 13.848 55.5765 11.379 53.078C8.89317 50.579 6.91655 47.6209 5.55899 44.368C4.14497 40.9902 3.42012 37.3639 3.42699 33.702C3.42699 30.004 4.14499 26.418 5.55899 23.041C6.91944 19.7897 8.89571 16.8321 11.379 14.331C13.8448 11.8275 16.7774 9.83156 20.011 8.456C23.3505 7.03057 26.945 6.29875 30.576 6.305C34.24 6.305 37.798 7.03 41.145 8.456C44.3749 9.83729 47.306 11.8322 49.776 14.33C52.2615 16.8284 54.2369 19.7868 55.592 23.04C57.0091 26.4156 57.7354 30.041 57.728 33.702C57.7354 37.3643 57.0091 40.991 55.592 44.368C54.231 47.6181 52.2563 50.5753 49.776 53.078C47.3094 55.5789 44.3773 57.573 41.145 58.948C37.8046 60.3767 34.2081 61.11 30.575 61.103H30.576ZM30.576 6.753C15.85 6.754 3.86999 18.843 3.86999 33.704C3.86999 48.567 15.849 60.655 30.575 60.655C45.305 60.655 57.283 48.567 57.283 33.703C57.283 18.843 45.304 6.755 30.575 6.755L30.576 6.753Z" fill="#FFBA07"/>
<path d="M99.073 61.573C95.96 61.573 93.233 60.984 90.893 59.81C88.563 58.637 86.677 56.982 85.24 54.842L84.065 60.564H74.568V0H85.24V24.825C86.574 22.965 88.337 21.339 90.528 19.937C92.72 18.538 95.567 17.837 99.072 17.837C102.955 17.837 106.429 18.795 109.491 20.707C112.548 22.609 114.97 25.217 116.748 28.527C118.527 31.828 119.416 35.587 119.416 39.794C119.416 43.993 118.527 47.734 116.748 51.012C114.97 54.293 112.548 56.874 109.491 58.752C106.429 60.632 102.955 61.573 99.073 61.573ZM96.817 52.15C100.204 52.15 103.011 51.004 105.234 48.704C107.458 46.408 108.569 43.44 108.569 39.794C108.569 36.152 107.458 33.154 105.234 30.803C103.011 28.443 100.204 27.261 96.817 27.261C93.375 27.261 90.552 28.427 88.353 30.755C86.161 33.075 85.065 36.055 85.065 39.697C85.065 43.351 86.161 46.344 88.353 48.672C90.553 50.992 93.375 52.15 96.817 52.15ZM134.654 12.372C132.717 12.372 131.117 11.787 129.858 10.61C128.608 9.424 127.984 7.941 127.984 6.154C127.984 4.359 128.608 2.884 129.858 1.731C131.117 0.577 132.717 0 134.654 0C136.6 0 138.2 0.577 139.451 1.73C140.697 2.885 141.325 4.36 141.325 6.154C141.325 7.941 140.697 9.424 139.451 10.61C138.2 11.787 136.6 12.372 134.654 12.372ZM129.318 60.564V18.847H139.991V60.564H129.318ZM170.993 61.573C166.991 61.573 163.39 60.648 160.194 58.801C157.006 56.954 154.48 54.39 152.618 51.108C150.752 47.831 149.823 44.025 149.823 39.698C149.823 35.382 150.764 31.584 152.65 28.303C154.544 25.025 157.089 22.461 160.289 20.61C163.485 18.763 167.078 17.837 171.072 17.837C175.019 17.837 178.592 18.763 181.792 20.61C184.988 22.461 187.513 25.025 189.367 28.303C191.229 31.584 192.162 35.383 192.162 39.697C192.162 44.025 191.229 47.831 189.367 51.108C187.513 54.39 184.972 56.954 181.744 58.801C178.525 60.648 174.939 61.573 170.993 61.573ZM170.993 52.23C173.776 52.23 176.194 51.184 178.251 49.089C180.303 46.985 181.332 43.856 181.332 39.697C181.332 35.555 180.303 32.433 178.251 30.338C176.194 28.234 173.804 27.181 171.072 27.181C168.245 27.181 165.816 28.234 163.783 30.338C161.758 32.433 160.749 35.555 160.749 39.698C160.749 43.856 161.758 46.985 163.783 49.088C165.816 51.184 168.218 52.23 170.993 52.23Z" fill="#684BFF"/>
<path d="M201.657 60.564V18.847H211.075L211.916 25.915C213.187 23.447 215.029 21.487 217.443 20.033C219.865 18.571 222.72 17.837 226.003 17.837C231.105 17.837 235.075 19.468 237.914 22.725C240.749 25.975 242.17 30.739 242.17 37.021V60.564H231.498V38.03C231.498 34.44 230.771 31.695 229.322 29.792C227.881 27.881 225.63 26.923 222.573 26.923C219.575 26.923 217.118 27.993 215.204 30.129C213.286 32.256 212.329 35.225 212.329 39.039V60.563H201.657V60.564ZM252.328 60.564V0H263V60.564H252.328Z" fill="#FFD500"/>
</g>
<defs>
<clipPath id="clip0_39_88">
<rect width="263" height="64" fill="white"/>
</clipPath>
</defs>
</svg>
