<svg width="30" height="30" viewBox="0 0 30 30" fill="none" xmlns="http://www.w3.org/2000/svg">
<path d="M13.4688 25.8125H5.625C5.125 25.8125 4.6875 25.625 4.3125 25.25C3.9375 24.875 3.75 24.4375 3.75 23.9375V5.75C3.75 5.25 3.91146 4.8125 4.23438 4.4375C4.55729 4.0625 4.83333 3.875 5.0625 3.875H11.375C11.5208 3.14583 11.8802 2.54688 12.4531 2.07812C13.026 1.60938 13.6875 1.375 14.4375 1.375C15.1875 1.375 15.849 1.60938 16.4219 2.07812C16.9948 2.54688 17.3542 3.14583 17.5 3.875H23.8125C24.3125 3.875 24.75 4.0625 25.125 4.4375C25.5 4.8125 25.6875 5.25 25.6875 5.75V12.0938H23.8125V5.75H20.5V9.8125H8.9375V5.75H5.625V23.9375H13.4688V25.8125ZM19.375 25.0312L14.375 20.0312L15.7188 18.6875L19.375 22.3438L26.8438 14.875L28.1875 16.2188L19.375 25.0312ZM15 5.625C15.3542 5.625 15.651 5.50521 15.8906 5.26563C16.1302 5.02604 16.25 4.72917 16.25 4.375C16.25 4.02083 16.1302 3.72396 15.8906 3.48437C15.651 3.24479 15.3542 3.125 15 3.125C14.6458 3.125 14.349 3.24479 14.1094 3.48437C13.8698 3.72396 13.75 4.02083 13.75 4.375C13.75 4.72917 13.8698 5.02604 14.1094 5.26563C14.349 5.50521 14.6458 5.625 15 5.625Z" fill="#4B5563"/>
</svg>
