<svg width="30" height="30" viewBox="0 0 30 30" fill="none" xmlns="http://www.w3.org/2000/svg"><path d="M13.469 25.813H5.625c-.5 0-.938-.188-1.313-.563-.375-.375-.562-.813-.562-1.313V5.75c0-.5.161-.938.484-1.313.323-.375.6-.562.829-.562h6.312a3.02 3.02 0 011.078-1.797 3.043 3.043 0 011.985-.703c.75 0 1.411.234 1.984.703A3.02 3.02 0 0117.5 3.875h6.313c.5 0 .937.188 1.312.563.375.375.563.812.563 1.312v6.344h-1.875V5.75H20.5v4.063H8.937V5.75H5.626v18.188h7.844v1.875zm5.906-.782l-5-5 1.344-1.343 3.656 3.656 7.469-7.469 1.343 1.344-8.812 8.812zM15 5.625c.354 0 .651-.12.89-.36.24-.239.36-.536.36-.89s-.12-.651-.36-.89a1.21 1.21 0 00-.89-.36c-.354 0-.651.12-.89.36-.24.239-.36.536-.36.89s.12.651.36.89c.239.24.536.36.89.36z" fill="#684bff"/></svg>