<svg width="30" height="30" viewBox="0 0 30 30" fill="none" xmlns="http://www.w3.org/2000/svg">
<path d="M12.3438 20.8438L15 18.1875L17.6562 20.8438L18.9688 19.5312L16.3125 16.875L18.9688 14.2188L17.6562 12.9062L15 15.5625L12.3438 12.9062L11.0312 14.2188L13.6875 16.875L11.0312 19.5312L12.3438 20.8438ZM9.375 24.375H20.625V9.375H9.375V24.375ZM6.5625 6.875V5H10.75L12 3.75H18L19.25 5H23.4375V6.875H6.5625ZM9.375 26.25C8.875 26.25 8.4375 26.0625 8.0625 25.6875C7.6875 25.3125 7.5 24.875 7.5 24.375V7.5H22.5V24.375C22.5 24.875 22.3125 25.3125 21.9375 25.6875C21.5625 26.0625 21.125 26.25 20.625 26.25H9.375ZM9.375 24.375H20.625H9.375Z" fill="#EF4444"/>
</svg>
