<svg width="30" height="30" viewBox="0 0 30 30" fill="none" xmlns="http://www.w3.org/2000/svg"><path d="M12.344 20.844L15 18.187l2.656 2.657 1.313-1.313-2.657-2.656 2.657-2.656-1.313-1.313L15 15.562l-2.656-2.656-1.313 1.313 2.656 2.656-2.656 2.656 1.313 1.313zm-2.969 3.531h11.25v-15H9.375v15zm-2.813-17.5V5h4.188L12 3.75h6L19.25 5h4.188v1.875H6.563zM9.376 26.25c-.5 0-.938-.188-1.313-.563-.374-.375-.562-.812-.562-1.312V7.5h15v16.875c0 .5-.188.938-.563 1.313-.375.375-.812.562-1.312.562H9.375zm0-1.875h11.25-11.25z" fill="#EF4444"/></svg>