<svg width="30" height="30" viewBox="0 0 30 30" fill="none" xmlns="http://www.w3.org/2000/svg">
<path d="M2.5 30V26.2187H27.5V30H2.5ZM5.0625 22.9062V18.75L16.7188 7.09374L20.875 11.25L9.21875 22.9062H5.0625ZM6.9375 21.0312H8.34375L18.1875 11.1875L16.7812 9.78124L6.9375 19.625V21.0312ZM22.25 9.87499L18.0938 5.71874L20.7188 3.09374C20.9479 2.82291 21.2083 2.68228 21.5 2.67186C21.7917 2.66145 22.0833 2.80207 22.375 3.09374L24.8125 5.53124C25.0833 5.80207 25.2188 6.08853 25.2188 6.39061C25.2188 6.6927 25.1042 6.97916 24.875 7.24999L22.25 9.87499Z" fill="#4B5563"/>
</svg>
