<svg width="30" height="30" viewBox="0 0 30 30" fill="none" xmlns="http://www.w3.org/2000/svg"><path d="M19.656 16.906l-1.375-1.375c.542-1.479.26-2.708-.843-3.687-1.105-.98-2.303-1.23-3.594-.75l-1.375-1.375c.354-.23.75-.396 1.187-.5A5.781 5.781 0 0115 9.063c1.48 0 2.734.515 3.766 1.546 1.03 1.032 1.547 2.287 1.547 3.766 0 .458-.058.912-.172 1.36a4.128 4.128 0 01-.485 1.171zm4.032 4.032l-1.25-1.25a14.656 14.656 0 002.671-2.516c.76-.927 1.318-1.86 1.672-2.797-1.041-2.313-2.604-4.14-4.687-5.484-2.084-1.344-4.344-2.016-6.782-2.016-.874 0-1.77.083-2.687.25-.917.167-1.635.365-2.156.594L9.03 6.25c.73-.333 1.662-.625 2.797-.875A15.453 15.453 0 0115.156 5c2.98 0 5.703.849 8.172 2.547 2.469 1.698 4.276 3.974 5.422 6.828a15.443 15.443 0 01-2.094 3.656 15.095 15.095 0 01-2.968 2.907zM25.5 28l-5.25-5.156c-.73.291-1.552.515-2.469.672-.916.156-1.843.234-2.781.234-3.042 0-5.802-.849-8.281-2.547-2.48-1.698-4.302-3.974-5.469-6.828.417-1.083.995-2.14 1.734-3.172A17.765 17.765 0 015.688 8.25L1.75 4.312 3.063 2.97l23.656 23.656L25.5 28zM6.969 9.562c-.771.563-1.516 1.303-2.235 2.22-.718.916-1.234 1.78-1.546 2.593 1.062 2.313 2.661 4.14 4.796 5.484 2.136 1.344 4.558 2.016 7.266 2.016.688 0 1.365-.042 2.031-.125.667-.083 1.167-.208 1.5-.375l-2-2c-.229.104-.51.182-.843.234a6.088 6.088 0 01-.938.078c-1.458 0-2.708-.51-3.75-1.53-1.042-1.022-1.563-2.282-1.563-3.782 0-.313.027-.625.079-.938.052-.312.13-.593.234-.843L6.969 9.563z" fill="#684BFF"/></svg>