<svg width="30" height="30" viewBox="0 0 30 30" fill="none" xmlns="http://www.w3.org/2000/svg">
<path d="M19.6563 16.9062L18.2812 15.5313C18.8229 14.0521 18.5417 12.8229 17.4375 11.8438C16.3333 10.8646 15.1354 10.6146 13.8437 11.0938L12.4688 9.71875C12.8229 9.48958 13.2188 9.32292 13.6563 9.21875C14.0938 9.11458 14.5417 9.0625 15 9.0625C16.4792 9.0625 17.7344 9.57813 18.7656 10.6094C19.7969 11.6406 20.3125 12.8958 20.3125 14.375C20.3125 14.8333 20.2552 15.2865 20.1406 15.7344C20.026 16.1823 19.8646 16.5729 19.6563 16.9062V16.9062ZM23.6875 20.9375L22.4375 19.6875C23.4583 18.9375 24.349 18.099 25.1094 17.1719C25.8698 16.2448 26.4271 15.3125 26.7812 14.375C25.7396 12.0625 24.1771 10.2344 22.0937 8.89063C20.0104 7.54688 17.75 6.875 15.3125 6.875C14.4375 6.875 13.5417 6.95833 12.625 7.125C11.7083 7.29167 10.9896 7.48958 10.4688 7.71875L9.03125 6.25C9.76042 5.91667 10.6927 5.625 11.8281 5.375C12.9635 5.125 14.0729 5 15.1562 5C18.1354 5 20.8594 5.84896 23.3281 7.54687C25.7969 9.24479 27.6042 11.5208 28.75 14.375C28.2083 15.7083 27.5104 16.9271 26.6563 18.0313C25.8021 19.1354 24.8125 20.1042 23.6875 20.9375ZM25.5 28L20.25 22.8437C19.5208 23.1354 18.6979 23.3594 17.7813 23.5156C16.8646 23.6719 15.9375 23.75 15 23.75C11.9583 23.75 9.19792 22.901 6.71875 21.2031C4.23958 19.5052 2.41667 17.2292 1.25 14.375C1.66667 13.2917 2.24479 12.2344 2.98438 11.2031C3.72396 10.1719 4.625 9.1875 5.6875 8.25L1.75 4.3125L3.0625 2.96875L26.7188 26.625L25.5 28ZM6.96875 9.5625C6.19792 10.125 5.45312 10.8646 4.73437 11.7813C4.01562 12.6979 3.5 13.5625 3.1875 14.375C4.25 16.6875 5.84896 18.5156 7.98437 19.8594C10.1198 21.2031 12.5417 21.875 15.25 21.875C15.9375 21.875 16.6146 21.8333 17.2812 21.75C17.9479 21.6667 18.4479 21.5417 18.7812 21.375L16.7813 19.375C16.5521 19.4792 16.2708 19.5573 15.9375 19.6094C15.6042 19.6615 15.2917 19.6875 15 19.6875C13.5417 19.6875 12.2917 19.1771 11.25 18.1562C10.2083 17.1354 9.6875 15.875 9.6875 14.375C9.6875 14.0625 9.71354 13.75 9.76562 13.4375C9.81771 13.125 9.89583 12.8437 10 12.5937L6.96875 9.5625Z" fill="#684BFF"/>
</svg>
