<svg width="30" height="30" viewBox="0 0 30 30" fill="none" xmlns="http://www.w3.org/2000/svg"><path d="M15 19.688c1.48 0 2.734-.516 3.766-1.547 1.03-1.032 1.547-2.287 1.547-3.766 0-1.48-.516-2.734-1.547-3.766C17.734 9.58 16.479 9.063 15 9.063c-1.48 0-2.734.515-3.766 1.546-1.03 1.032-1.546 2.287-1.546 3.766 0 1.48.515 2.734 1.546 3.766 1.032 1.03 2.287 1.547 3.766 1.547zm0-1.813c-.98 0-1.807-.338-2.484-1.016-.678-.677-1.016-1.505-1.016-2.484 0-.98.338-1.807 1.016-2.484.677-.678 1.505-1.016 2.484-1.016.98 0 1.807.338 2.484 1.016.677.677 1.016 1.505 1.016 2.484 0 .98-.338 1.807-1.016 2.484-.677.677-1.505 1.016-2.484 1.016zm0 5.875c-3.042 0-5.792-.865-8.25-2.594-2.458-1.729-4.292-3.99-5.5-6.781 1.208-2.792 3.042-5.052 5.5-6.781C9.208 5.864 11.958 5 15 5s5.792.865 8.25 2.594c2.458 1.729 4.292 3.99 5.5 6.781-1.208 2.792-3.042 5.052-5.5 6.781-2.458 1.73-5.208 2.594-8.25 2.594zm0-1.875c2.52 0 4.838-.682 6.953-2.047a13.282 13.282 0 004.828-5.453 13.282 13.282 0 00-4.828-5.453A12.567 12.567 0 0015 6.875c-2.52 0-4.838.682-6.953 2.047a13.506 13.506 0 00-4.86 5.453 13.506 13.506 0 004.86 5.453A12.567 12.567 0 0015 21.875z" fill="#684BFF"/></svg>