<svg width="16" height="16" viewBox="0 0 16 16" fill="none" xmlns="http://www.w3.org/2000/svg">
<path d="M7.55004 11.3333H8.55004V7.33333H7.55004V11.3333ZM8.00004 6.1C8.1556 6.1 8.28615 6.05 8.39171 5.95C8.49726 5.85 8.55004 5.72222 8.55004 5.56667C8.55004 5.41111 8.49726 5.27778 8.39171 5.16667C8.28615 5.05555 8.1556 5 8.00004 5C7.84449 5 7.71393 5.05555 7.60837 5.16667C7.50282 5.27778 7.45004 5.41111 7.45004 5.56667C7.45004 5.72222 7.50282 5.85 7.60837 5.95C7.71393 6.05 7.84449 6.1 8.00004 6.1V6.1ZM8.00004 14.6667C7.08893 14.6667 6.22782 14.4917 5.41671 14.1417C4.6056 13.7917 3.89726 13.3139 3.29171 12.7083C2.68615 12.1028 2.20837 11.3944 1.85837 10.5833C1.50837 9.77222 1.33337 8.90555 1.33337 7.98333C1.33337 7.07222 1.50837 6.21111 1.85837 5.4C2.20837 4.58889 2.68615 3.88333 3.29171 3.28333C3.89726 2.68333 4.6056 2.20833 5.41671 1.85833C6.22782 1.50833 7.09449 1.33333 8.01671 1.33333C8.92782 1.33333 9.78893 1.50833 10.6 1.85833C11.4112 2.20833 12.1167 2.68333 12.7167 3.28333C13.3167 3.88333 13.7917 4.58889 14.1417 5.4C14.4917 6.21111 14.6667 7.07778 14.6667 8C14.6667 8.91111 14.4917 9.77222 14.1417 10.5833C13.7917 11.3944 13.3167 12.1028 12.7167 12.7083C12.1167 13.3139 11.4112 13.7917 10.6 14.1417C9.78893 14.4917 8.92226 14.6667 8.00004 14.6667ZM8.01671 13.6667C9.58337 13.6667 10.9167 13.1139 12.0167 12.0083C13.1167 10.9028 13.6667 9.56111 13.6667 7.98333C13.6667 6.41667 13.1167 5.08333 12.0167 3.98333C10.9167 2.88333 9.57782 2.33333 8.00004 2.33333C6.43337 2.33333 5.09726 2.88333 3.99171 3.98333C2.88615 5.08333 2.33337 6.42222 2.33337 8C2.33337 9.56667 2.88615 10.9028 3.99171 12.0083C5.09726 13.1139 6.43893 13.6667 8.01671 13.6667Z" fill="#4B5563"/>
</svg>
