<svg width="289" height="292" viewBox="0 0 289 292" fill="none" xmlns="http://www.w3.org/2000/svg">
<path d="M254.78 145.835C254.78 149.48 254.613 153.125 254.257 156.77C253.898 160.408 253.367 164.027 252.667 167.614C251.242 174.775 249.135 181.782 246.377 188.541C243.611 195.29 240.194 201.753 236.175 207.837C234.162 210.872 232.006 213.809 229.713 216.637C227.418 219.457 224.99 222.165 222.437 224.752C219.875 227.335 217.189 229.793 214.391 232.118C211.593 234.429 208.704 236.606 205.683 238.645C202.675 240.67 199.578 242.543 196.385 244.282C190.009 247.728 183.307 250.53 176.376 252.644C172.921 253.711 169.409 254.588 165.874 255.312C158.778 256.745 151.557 257.461 144.318 257.451C140.692 257.451 137.085 257.28 133.493 256.918C129.893 256.555 126.311 256.019 122.763 255.312C115.665 253.871 108.725 251.742 102.04 248.956C98.6955 247.561 95.4226 246.001 92.2326 244.282C89.0525 242.544 85.952 240.665 82.9394 238.65C79.9368 236.611 77.0314 234.433 74.2315 232.122C68.6437 227.466 63.5175 222.28 58.9237 216.637C52.0173 208.143 46.4022 198.673 42.2597 188.536C39.4703 181.792 37.3629 174.784 35.9691 167.619C35.2612 164.031 34.7324 160.411 34.3845 156.77C34.0297 153.136 33.8534 149.487 33.8564 145.835C33.8564 142.167 34.0229 138.522 34.3798 134.896C34.7224 131.251 35.2744 127.639 35.9691 124.052C37.3738 116.881 39.4809 109.867 42.2597 103.111C45.0253 96.3621 48.4423 89.8989 52.4618 83.8145C54.465 80.7746 56.6206 77.8349 58.9237 75.0095C61.2077 72.184 63.6488 69.492 66.1993 66.8953C68.7688 64.3224 71.4336 61.8591 74.2267 59.5483C77.0171 57.226 79.9235 55.0477 82.9346 53.0208C85.9443 50.9987 89.0468 49.1195 92.2326 47.389C95.4207 45.6738 98.6945 44.1014 102.035 42.7102C108.715 39.9048 115.659 37.7755 122.763 36.3542C126.31 35.6381 129.891 35.102 133.493 34.7485C137.09 34.3888 140.703 34.2111 144.318 34.2149C147.925 34.2149 151.537 34.3864 155.144 34.7485C158.745 35.102 162.326 35.6381 165.874 36.3542C172.975 37.7783 179.917 39.9076 186.597 42.7102C196.644 46.9097 206.01 52.5848 214.386 59.5483C217.186 61.8663 219.873 64.3182 222.437 66.8953C224.986 69.4863 227.414 72.1941 229.713 75.0095C231.997 77.8349 234.152 80.7746 236.175 83.8097C242.21 92.9482 246.875 102.923 250.022 113.417C251.078 116.933 251.949 120.464 252.667 124.052C253.367 127.639 253.895 131.246 254.252 134.896C254.613 138.522 254.78 142.167 254.78 145.835Z" fill="#684BFF"/>
<path d="M144.166 291.375C124.704 291.375 105.837 287.516 88.0595 279.921C70.8816 272.593 55.4882 262.054 42.2265 248.713C29.0393 235.418 18.5489 219.691 11.3348 202.401C3.8155 184.44 -0.0383363 165.153 0.000287467 145.678C0.000287467 126.015 3.81653 106.942 11.3348 88.9793C18.5603 71.6957 29.0494 55.9705 42.2265 42.6673C55.324 29.3697 70.8945 18.7676 88.0595 11.4591C105.792 3.86739 124.881 -0.0313519 144.166 0.000189864C163.628 0.000189864 182.519 3.85952 200.296 11.4543C217.446 18.7922 233.012 29.3924 246.129 42.6673C259.319 55.9591 269.809 71.6871 277.016 88.9793C284.536 106.932 288.392 126.21 288.355 145.678C288.43 184.258 273.248 221.298 246.129 248.703C233.024 261.992 217.455 272.595 200.296 279.916C182.556 287.509 163.458 291.408 144.166 291.375ZM144.166 2.39202C65.9709 2.39202 2.36522 66.6666 2.36522 145.683C2.36522 224.714 65.9709 288.988 144.166 288.988C222.38 288.988 285.99 224.714 285.99 145.683C285.99 66.6666 222.38 2.39202 144.166 2.39202Z" fill="#FFBA07"/>
<path d="M145.494 277.572C128.054 277.572 111.147 274.118 95.2209 267.304C79.846 260.74 65.8948 251.241 54.1463 239.336C42.3177 227.429 32.9121 213.335 26.4523 197.836C19.7238 181.743 16.2747 164.465 16.3074 147.017C16.3074 129.398 19.7239 112.312 26.4523 96.2216C32.9259 80.7304 42.3298 66.6386 54.1463 54.7218C65.8796 42.7936 79.8341 33.2838 95.2209 26.7297C111.112 19.9381 128.216 16.4513 145.494 16.4811C162.928 16.4811 179.859 19.9354 195.785 26.7297C211.154 33.3111 225.102 42.816 236.855 54.7171C248.682 66.621 258.082 80.7166 264.53 96.2168C271.273 112.3 274.729 129.574 274.694 147.017C274.729 164.466 271.273 181.746 264.53 197.836C258.054 213.322 248.657 227.412 236.855 239.336C225.118 251.252 211.166 260.753 195.785 267.304C179.89 274.112 162.777 277.605 145.489 277.572H145.494ZM145.494 18.6156C75.4212 18.6204 18.4153 76.2197 18.4153 147.027C18.4153 217.843 75.4164 275.438 145.489 275.438C215.58 275.438 272.577 217.843 272.577 147.022C272.577 76.2197 215.576 18.6251 145.489 18.6251L145.494 18.6156Z" fill="#FFBA07"/>
</svg>
