<svg width="289" height="292" viewBox="0 0 289 292" fill="none" xmlns="http://www.w3.org/2000/svg"><path d="M254.78 145.835c0 3.645-.167 7.29-.523 10.935-.359 3.638-.89 7.257-1.59 10.844a114.581 114.581 0 01-6.29 20.927 112.217 112.217 0 01-10.202 19.296 114.171 114.171 0 01-6.462 8.8 113.97 113.97 0 01-7.276 8.115 113.506 113.506 0 01-8.046 7.366 112.41 112.41 0 01-8.708 6.527 115.813 115.813 0 01-9.298 5.637 108.906 108.906 0 01-20.009 8.362 111.206 111.206 0 01-10.502 2.668 108.137 108.137 0 01-21.556 2.139c-3.626 0-7.233-.171-10.825-.533-3.6-.363-7.182-.899-10.73-1.606a111.576 111.576 0 01-20.723-6.356 109.675 109.675 0 01-9.807-4.674 121.656 121.656 0 01-9.294-5.632 116.45 116.45 0 01-8.707-6.528 113.084 113.084 0 01-15.308-15.485 111.254 111.254 0 01-16.664-28.101 109.37 109.37 0 01-6.29-20.917 110.188 110.188 0 01-1.585-10.849 111.584 111.584 0 01-.529-10.935c0-3.668.167-7.313.524-10.939.342-3.645.894-7.257 1.59-10.844a111.294 111.294 0 016.29-20.941 112.177 112.177 0 0110.202-19.297c2.003-3.04 4.159-5.98 6.462-8.804 2.284-2.826 4.725-5.518 7.275-8.115 2.57-2.573 5.235-5.036 8.028-7.347 2.79-2.322 5.697-4.5 8.708-6.527a115.696 115.696 0 019.298-5.632 109.902 109.902 0 019.802-4.679 108.509 108.509 0 0120.728-6.356 107.056 107.056 0 0110.73-1.605c3.597-.36 7.21-.538 10.825-.534 3.607 0 7.219.171 10.826.533 3.601.354 7.182.89 10.73 1.606a108.928 108.928 0 0120.723 6.356 109.563 109.563 0 0127.789 16.838c2.8 2.318 5.487 4.77 8.051 7.347a117.922 117.922 0 017.276 8.115 118.851 118.851 0 016.462 8.8 112.222 112.222 0 0113.847 29.607 115.973 115.973 0 012.645 10.635c.7 3.587 1.228 7.194 1.585 10.844.361 3.626.528 7.271.528 10.939z" fill="#684BFF"/><path d="M144.166 291.375c-19.462 0-38.329-3.859-56.106-11.454-17.178-7.328-32.572-17.867-45.834-31.208a145.105 145.105 0 01-30.891-46.312A146.14 146.14 0 010 145.678c0-19.663 3.817-38.736 11.335-56.699a145.622 145.622 0 0130.892-46.312A142.92 142.92 0 0188.06 11.46 141.963 141.963 0 01144.166 0c19.462 0 38.353 3.86 56.13 11.454a144.154 144.154 0 0145.833 31.213 144.869 144.869 0 0130.887 46.312 146.038 146.038 0 0111.339 56.699 146.068 146.068 0 01-42.226 103.025 143.42 143.42 0 01-45.833 31.213 142.03 142.03 0 01-56.13 11.459zm0-288.983c-78.195 0-141.8 64.275-141.8 143.291 0 79.031 63.605 143.305 141.8 143.305 78.214 0 141.824-64.274 141.824-143.305 0-79.016-63.61-143.291-141.824-143.291z" fill="#FFBA07"/><path d="M145.494 277.572c-17.44 0-34.347-3.454-50.273-10.268a128.71 128.71 0 01-41.075-27.968 129.661 129.661 0 01-27.694-41.5 131.109 131.109 0 01-10.145-50.819c0-17.619 3.417-34.705 10.145-50.795a130.28 130.28 0 0127.694-41.5A127.952 127.952 0 0195.221 26.73a127.361 127.361 0 0150.273-10.249c17.434 0 34.365 3.454 50.291 10.249a129.208 129.208 0 0141.07 27.987 129.392 129.392 0 0127.675 41.5 130.712 130.712 0 0110.164 50.8 130.807 130.807 0 01-10.164 50.819 130.644 130.644 0 01-27.675 41.5 128.112 128.112 0 01-41.07 27.968 127.125 127.125 0 01-50.296 10.268h.005zm0-258.956C75.421 18.62 18.415 76.22 18.415 147.027c0 70.816 57.001 128.411 127.074 128.411 70.091 0 127.088-57.595 127.088-128.416 0-70.802-57.001-128.397-127.088-128.397l.005-.01z" fill="#FFBA07"/></svg>