<svg width="48" height="48" viewBox="0 0 48 48" fill="none" xmlns="http://www.w3.org/2000/svg"><path d="M19.4 44l-1-6.3c-.633-.233-1.3-.55-2-.95-.7-.4-1.317-.817-1.85-1.25l-5.9 2.7L4 30l5.4-3.95a5.945 5.945 0 01-.125-1.025A23.859 23.859 0 019.25 24c0-.3.008-.642.025-1.025.017-.383.058-.725.125-1.025L4 18l4.65-8.2 5.9 2.7c.533-.433 1.15-.85 1.85-1.25.7-.4 1.367-.7 2-.9l1-6.35h9.2l1 6.3c.633.233 1.308.542 2.025.925A8.603 8.603 0 0133.45 12.5l5.9-2.7L44 18l-5.4 3.85c.067.333.108.692.125 1.075s.025.742.025 1.075c0 .333-.008.683-.025 1.05a6.961 6.961 0 01-.125 1.05L44 30l-4.65 8.2-5.9-2.7c-.533.433-1.142.858-1.825 1.275a8.71 8.71 0 01-2.025.925l-1 6.3h-9.2zM24 30.5c1.8 0 3.333-.633 4.6-1.9 1.267-1.267 1.9-2.8 1.9-4.6 0-1.8-.633-3.333-1.9-4.6-1.267-1.267-2.8-1.9-4.6-1.9-1.8 0-3.333.633-4.6 1.9-1.267 1.267-1.9 2.8-1.9 4.6 0 1.8.633 3.333 1.9 4.6 1.267 1.267 2.8 1.9 4.6 1.9zm0-3a3.372 3.372 0 01-2.475-1.025A3.372 3.372 0 0120.5 24c0-.967.342-1.792 1.025-2.475A3.372 3.372 0 0124 20.5c.967 0 1.792.342 2.475 1.025A3.372 3.372 0 0127.5 24c0 .967-.342 1.792-1.025 2.475A3.372 3.372 0 0124 27.5zM21.8 41h4.4l.7-5.6c1.1-.267 2.142-.683 3.125-1.25A12.817 12.817 0 0032.7 32.1l5.3 2.3 2-3.6-4.7-3.45c.133-.567.242-1.125.325-1.675.083-.55.125-1.108.125-1.675a13.9 13.9 0 00-.1-1.675 10.347 10.347 0 00-.35-1.675L40 17.2l-2-3.6-5.3 2.3a11.144 11.144 0 00-2.6-2.175 8.434 8.434 0 00-3.2-1.125L26.2 7h-4.4l-.7 5.6a10.592 10.592 0 00-3.175 1.2 11.03 11.03 0 00-2.625 2.1L10 13.6l-2 3.6 4.7 3.45a21.146 21.146 0 00-.325 1.675A11.17 11.17 0 0012.25 24c0 .567.042 1.125.125 1.675.083.55.192 1.108.325 1.675L8 30.8l2 3.6 5.3-2.3c.8.8 1.692 1.483 2.675 2.05.983.567 2.025.983 3.125 1.25l.7 5.6z" fill="#6B7280"/></svg>