<svg width="48" height="48" viewBox="0 0 48 48" fill="none" xmlns="http://www.w3.org/2000/svg">
<path d="M19.4 44L18.4 37.7C17.7667 37.4667 17.1 37.15 16.4 36.75C15.7 36.35 15.0833 35.9333 14.55 35.5L8.65 38.2L4 30L9.4 26.05C9.33333 25.75 9.29167 25.4083 9.275 25.025C9.25833 24.6417 9.25 24.3 9.25 24C9.25 23.7 9.25833 23.3583 9.275 22.975C9.29167 22.5917 9.33333 22.25 9.4 21.95L4 18L8.65 9.8L14.55 12.5C15.0833 12.0667 15.7 11.65 16.4 11.25C17.1 10.85 17.7667 10.55 18.4 10.35L19.4 4H28.6L29.6 10.3C30.2333 10.5333 30.9083 10.8417 31.625 11.225C32.3417 11.6083 32.95 12.0333 33.45 12.5L39.35 9.8L44 18L38.6 21.85C38.6667 22.1833 38.7083 22.5417 38.725 22.925C38.7417 23.3083 38.75 23.6667 38.75 24C38.75 24.3333 38.7417 24.6833 38.725 25.05C38.7083 25.4167 38.6667 25.7667 38.6 26.1L44 30L39.35 38.2L33.45 35.5C32.9167 35.9333 32.3083 36.3583 31.625 36.775C30.9417 37.1917 30.2667 37.5 29.6 37.7L28.6 44H19.4ZM24 30.5C25.8 30.5 27.3333 29.8667 28.6 28.6C29.8667 27.3333 30.5 25.8 30.5 24C30.5 22.2 29.8667 20.6667 28.6 19.4C27.3333 18.1333 25.8 17.5 24 17.5C22.2 17.5 20.6667 18.1333 19.4 19.4C18.1333 20.6667 17.5 22.2 17.5 24C17.5 25.8 18.1333 27.3333 19.4 28.6C20.6667 29.8667 22.2 30.5 24 30.5ZM24 27.5C23.0333 27.5 22.2083 27.1583 21.525 26.475C20.8417 25.7917 20.5 24.9667 20.5 24C20.5 23.0333 20.8417 22.2083 21.525 21.525C22.2083 20.8417 23.0333 20.5 24 20.5C24.9667 20.5 25.7917 20.8417 26.475 21.525C27.1583 22.2083 27.5 23.0333 27.5 24C27.5 24.9667 27.1583 25.7917 26.475 26.475C25.7917 27.1583 24.9667 27.5 24 27.5ZM21.8 41H26.2L26.9 35.4C28 35.1333 29.0417 34.7167 30.025 34.15C31.0083 33.5833 31.9 32.9 32.7 32.1L38 34.4L40 30.8L35.3 27.35C35.4333 26.7833 35.5417 26.225 35.625 25.675C35.7083 25.125 35.75 24.5667 35.75 24C35.75 23.4333 35.7167 22.875 35.65 22.325C35.5833 21.775 35.4667 21.2167 35.3 20.65L40 17.2L38 13.6L32.7 15.9C31.9333 15.0333 31.0667 14.3083 30.1 13.725C29.1333 13.1417 28.0667 12.7667 26.9 12.6L26.2 7H21.8L21.1 12.6C19.9667 12.8333 18.9083 13.2333 17.925 13.8C16.9417 14.3667 16.0667 15.0667 15.3 15.9L10 13.6L8 17.2L12.7 20.65C12.5667 21.2167 12.4583 21.775 12.375 22.325C12.2917 22.875 12.25 23.4333 12.25 24C12.25 24.5667 12.2917 25.125 12.375 25.675C12.4583 26.225 12.5667 26.7833 12.7 27.35L8 30.8L10 34.4L15.3 32.1C16.1 32.9 16.9917 33.5833 17.975 34.15C18.9583 34.7167 20 35.1333 21.1 35.4L21.8 41Z" fill="#6B7280"/>
</svg>
