<svg width="48" height="48" viewBox="0 0 48 48" fill="none" xmlns="http://www.w3.org/2000/svg">
<path d="M25.75 44L25.25 38.5H23.25C18.4833 38.5 14.4167 36.8167 11.05 33.45C7.68333 30.0833 6 26.0167 6 21.25C6 16.4833 7.69167 12.4167 11.075 9.05C14.4583 5.68333 18.55 4 23.35 4C25.7167 4 27.9083 4.425 29.925 5.275C31.9417 6.125 33.7 7.31667 35.2 8.85C36.7 10.3833 37.875 12.1917 38.725 14.275C39.575 16.3583 40 18.6333 40 21.1C40 25.5667 38.7417 29.875 36.225 34.025C33.7083 38.175 30.2167 41.5 25.75 44ZM23.35 32.85C23.8833 32.85 24.3333 32.6667 24.7 32.3C25.0667 31.9333 25.25 31.4833 25.25 30.95C25.25 30.4167 25.0667 29.9667 24.7 29.6C24.3333 29.2333 23.8833 29.05 23.35 29.05C22.8167 29.05 22.3667 29.2333 22 29.6C21.6333 29.9667 21.45 30.4167 21.45 30.95C21.45 31.4833 21.6333 31.9333 22 32.3C22.3667 32.6667 22.8167 32.85 23.35 32.85ZM22 26.05H24.5C24.5 25.2167 24.6417 24.525 24.925 23.975C25.2083 23.425 25.8 22.7 26.7 21.8C27.6 20.9 28.2333 20.075 28.6 19.325C28.9667 18.575 29.15 17.7667 29.15 16.9C29.15 15.4 28.6417 14.1667 27.625 13.2C26.6083 12.2333 25.25 11.75 23.55 11.75C22.15 11.75 20.9 12.1167 19.8 12.85C18.7 13.5833 17.8833 14.5833 17.35 15.85L19.65 16.8C20.0167 15.9333 20.525 15.2917 21.175 14.875C21.825 14.4583 22.5667 14.25 23.4 14.25C24.4 14.25 25.1833 14.4917 25.75 14.975C26.3167 15.4583 26.6 16.1 26.6 16.9C26.6 17.5333 26.4167 18.175 26.05 18.825C25.6833 19.475 25.0333 20.2833 24.1 21.25C23.2 22.1833 22.625 22.9333 22.375 23.5C22.125 24.0667 22 24.9167 22 26.05ZM28.25 35.5V38.6C30.9833 36.3 33.125 33.5917 34.675 30.475C36.225 27.3583 37 24.2333 37 21.1C37 16.9667 35.7083 13.5833 33.125 10.95C30.5417 8.31667 27.2833 7 23.35 7C19.35 7 15.9583 8.39167 13.175 11.175C10.3917 13.9583 9 17.3167 9 21.25C9 25.1833 10.3917 28.5417 13.175 31.325C15.9583 34.1083 19.3167 35.5 23.25 35.5H28.25Z" fill="#6B7280"/>
</svg>
