<svg width="48" height="48" viewBox="0 0 48 48" fill="none" xmlns="http://www.w3.org/2000/svg"><path d="M25.75 44l-.5-5.5h-2c-4.767 0-8.833-1.683-12.2-5.05C7.683 30.083 6 26.017 6 21.25c0-4.767 1.692-8.833 5.075-12.2C14.458 5.683 18.55 4 23.35 4c2.367 0 4.558.425 6.575 1.275A15.98 15.98 0 0135.2 8.85c1.5 1.533 2.675 3.342 3.525 5.425C39.575 16.358 40 18.633 40 21.1c0 4.467-1.258 8.775-3.775 12.925S30.217 41.5 25.75 44zm-2.4-11.15c.533 0 .983-.183 1.35-.55.367-.367.55-.817.55-1.35 0-.533-.183-.983-.55-1.35a1.835 1.835 0 00-1.35-.55c-.533 0-.983.183-1.35.55-.367.367-.55.817-.55 1.35 0 .533.183.983.55 1.35.367.367.817.55 1.35.55zM22 26.05h2.5c0-.833.142-1.525.425-2.075.283-.55.875-1.275 1.775-2.175.9-.9 1.533-1.725 1.9-2.475s.55-1.558.55-2.425c0-1.5-.508-2.733-1.525-3.7-1.017-.967-2.375-1.45-4.075-1.45-1.4 0-2.65.367-3.75 1.1-1.1.733-1.917 1.733-2.45 3l2.3.95c.367-.867.875-1.508 1.525-1.925.65-.417 1.392-.625 2.225-.625 1 0 1.783.242 2.35.725.567.483.85 1.125.85 1.925 0 .633-.183 1.275-.55 1.925-.367.65-1.017 1.458-1.95 2.425-.9.933-1.475 1.683-1.725 2.25S22 24.917 22 26.05zm6.25 9.45v3.1c2.733-2.3 4.875-5.008 6.425-8.125C36.225 27.358 37 24.233 37 21.1c0-4.133-1.292-7.517-3.875-10.15S27.283 7 23.35 7c-4 0-7.392 1.392-10.175 4.175C10.392 13.958 9 17.317 9 21.25c0 3.933 1.392 7.292 4.175 10.075 2.783 2.783 6.142 4.175 10.075 4.175h5z" fill="#6B7280"/></svg>