<svg width="48" height="48" viewBox="0 0 48 48" fill="none" xmlns="http://www.w3.org/2000/svg"><path d="M38.4 42L25.85 29.45l2.85-2.85 12.55 12.55L38.4 42zM9.35 42L6.5 39.15 21 24.65l-5.35-5.35-1.15 1.15-2.2-2.2v4.25l-1.2 1.2L5 17.6l1.2-1.2h4.3L8.1 14l6.55-6.55c.567-.567 1.183-.95 1.85-1.15.667-.2 1.4-.3 2.2-.3.8 0 1.533.142 2.2.425A5.852 5.852 0 0122.75 7.7l-5.35 5.35 2.4 2.4-1.2 1.2 5.2 5.2 6.1-6.1a5.558 5.558 0 01-.625-1.5 7.009 7.009 0 01-.225-1.8c0-1.767.642-3.292 1.925-4.575 1.283-1.283 2.808-1.925 4.575-1.925.5 0 .925.05 1.275.15.35.1.642.233.875.4l-4.25 4.25 3.75 3.75 4.25-4.25c.167.267.308.592.425.975.117.383.175.825.175 1.325 0 1.767-.642 3.292-1.925 4.575-1.283 1.283-2.808 1.925-4.575 1.925-.6 0-1.117-.042-1.55-.125a5.313 5.313 0 01-1.2-.375L9.35 42z" fill="#6B7280"/></svg>