<svg width="48" height="48" viewBox="0 0 48 48" fill="none" xmlns="http://www.w3.org/2000/svg">
<path d="M38.4 42L25.85 29.45L28.7 26.6L41.25 39.15L38.4 42ZM9.35 42L6.5 39.15L21 24.65L15.65 19.3L14.5 20.45L12.3 18.25V22.5L11.1 23.7L5 17.6L6.2 16.4H10.5L8.1 14L14.65 7.45001C15.2167 6.88335 15.8333 6.50001 16.5 6.30001C17.1667 6.10001 17.9 6.00001 18.7 6.00001C19.5 6.00001 20.2333 6.14168 20.9 6.42501C21.5667 6.70835 22.1833 7.13335 22.75 7.70001L17.4 13.05L19.8 15.45L18.6 16.65L23.8 21.85L29.9 15.75C29.6333 15.3167 29.425 14.8167 29.275 14.25C29.125 13.6833 29.05 13.0833 29.05 12.45C29.05 10.6833 29.6917 9.15835 30.975 7.87501C32.2583 6.59168 33.7833 5.95001 35.55 5.95001C36.05 5.95001 36.475 6.00001 36.825 6.10001C37.175 6.20001 37.4667 6.33335 37.7 6.50001L33.45 10.75L37.2 14.5L41.45 10.25C41.6167 10.5167 41.7583 10.8417 41.875 11.225C41.9917 11.6083 42.05 12.05 42.05 12.55C42.05 14.3167 41.4083 15.8417 40.125 17.125C38.8417 18.4083 37.3167 19.05 35.55 19.05C34.95 19.05 34.4333 19.0083 34 18.925C33.5667 18.8417 33.1667 18.7167 32.8 18.55L9.35 42Z" fill="#6B7280"/>
</svg>
